<?xml version="1.0" encoding="UTF-8" standalone="no"?>
<!DOCTYPE svg PUBLIC "-//W3C//DTD SVG 1.1//EN" "http://www.w3.org/Graphics/SVG/1.1/DTD/svg11.dtd">
<svg width="100%" height="100%" viewBox="0 0 2395 334" version="1.1" xmlns="http://www.w3.org/2000/svg" xmlns:xlink="http://www.w3.org/1999/xlink" xml:space="preserve" xmlns:serif="http://www.serif.com/" style="fill-rule:evenodd;clip-rule:evenodd;stroke-linejoin:round;stroke-miterlimit:2;">
    <g transform="matrix(1,0,0,1,-34.3997,-1135.05)">
        <g transform="matrix(1,0,0,1,1.48843,15.0685)">
            <g transform="matrix(1,0,0,1,-149.271,299.347)">
                <text x="603.267px" y="1039.92px" style="font-family:'StelluxRegularPersonal', 'Stellux';font-size:201.443px;fill:url(#_Linear1);">DMI FINANCE</text>
            </g>
            <g id="path1448" transform="matrix(1.39323,0,0,1.39323,205.669,1037.77)">
                <path d="M-123.548,260.535C-123.657,260.42 -123.747,260.135 -123.747,259.901C-123.747,259.425 -122.417,255.822 -121.642,254.197C-121.219,253.311 -120.229,251.063 -117.797,245.466C-117.607,245.029 -117.098,243.898 -116.665,242.952C-115.812,241.085 -113.101,234.739 -112.428,233.03C-112.199,232.448 -111.214,230.186 -110.239,228.003C-109.265,225.82 -107.903,222.725 -107.214,221.124C-106.524,219.523 -105.75,217.737 -105.493,217.155C-105.237,216.573 -104.755,215.442 -104.422,214.642C-104.089,213.841 -103.717,213.073 -103.595,212.935C-103.473,212.797 -103.374,212.486 -103.374,212.244C-103.374,212.003 -103.102,211.402 -102.77,210.908C-102.438,210.415 -102.009,209.476 -101.817,208.821C-101.625,208.166 -101.226,207.094 -100.93,206.44C-100.635,205.785 -100.041,204.475 -99.611,203.529C-97.663,199.244 -96.846,197.359 -96.631,196.65C-96.52,196.286 -96.017,195.096 -95.513,194.004C-95.008,192.913 -94.416,191.603 -94.196,191.094C-93.976,190.584 -93.52,189.572 -93.183,188.845C-92.845,188.117 -92.486,187.224 -92.385,186.86C-92.284,186.497 -91.986,185.782 -91.723,185.273C-90.991,183.854 -90.006,181.655 -89.057,179.32C-88.584,178.156 -87.921,176.679 -87.583,176.039C-87.246,175.399 -86.97,174.767 -86.97,174.634C-86.97,174.501 -86.689,173.775 -86.347,173.02C-86.005,172.265 -85.336,170.694 -84.862,169.53C-84.387,168.366 -83.759,166.878 -83.466,166.223C-83.172,165.568 -82.723,164.556 -82.468,163.974C-81.744,162.324 -80.05,158.691 -79.962,158.6C-79.81,158.443 -75.14,161.734 -73.608,163.079C-72.786,163.801 -70.331,165.728 -68.581,167.027C-67.708,167.674 -66.934,168.271 -66.861,168.353C-66.789,168.435 -65.598,169.343 -64.215,170.371C-62.833,171.399 -61.457,172.477 -61.157,172.767C-60.857,173.057 -59.904,173.817 -59.039,174.455C-55.336,177.188 -55.038,177.586 -55.736,178.86C-55.874,179.113 -56.184,179.796 -56.424,180.378C-57.404,182.753 -58.597,185.484 -60.181,188.977C-60.478,189.632 -61.097,191.12 -61.556,192.284C-62.015,193.449 -62.521,194.699 -62.679,195.062C-62.837,195.426 -63.12,196.081 -63.308,196.518C-63.495,196.954 -63.879,197.847 -64.162,198.502C-64.445,199.157 -65.716,202.193 -66.988,205.249C-68.259,208.305 -69.51,211.222 -69.767,211.731C-70.735,213.649 -71.624,215.677 -71.624,215.97C-71.624,216.254 -72.387,218.138 -73.873,221.521C-74.224,222.321 -74.887,223.869 -75.345,224.96C-75.804,226.052 -76.514,227.659 -76.924,228.532C-77.334,229.405 -77.93,230.834 -78.247,231.707C-78.565,232.58 -79.095,233.89 -79.426,234.618C-80.414,236.792 -80.451,237.061 -79.81,237.404C-79.097,237.786 -68.08,237.536 -61.305,236.985C-58.758,236.777 -55.441,236.546 -53.934,236.47C-52.426,236.394 -51.109,236.281 -51.008,236.218C-50.906,236.156 -49.104,236.041 -47.002,235.965C-44.901,235.888 -42.348,235.704 -41.329,235.556C-40.31,235.407 -37.453,235.102 -34.979,234.878C-32.505,234.653 -29.469,234.356 -28.232,234.218C-26.995,234.08 -23.602,233.783 -20.692,233.558C-17.781,233.333 -14.892,233.033 -14.272,232.891C-13.651,232.749 -12.758,232.631 -12.287,232.628C-11.816,232.625 -10.479,232.451 -9.314,232.24C-8.15,232.03 -6.624,231.854 -5.922,231.849C-5.221,231.844 -3.673,231.667 -2.483,231.455C-1.292,231.244 0.753,230.94 2.063,230.78C3.372,230.621 5.218,230.322 6.164,230.116C7.11,229.911 8.776,229.609 9.868,229.445C10.959,229.282 13.4,228.863 15.292,228.515C21.586,227.358 25.064,226.763 26.839,226.541C27.805,226.421 29.115,226.185 29.749,226.017C32.402,225.316 33.127,225.149 36.723,224.416C37.305,224.297 38.496,224.022 39.369,223.805C40.242,223.587 42.028,223.153 43.338,222.839C44.647,222.526 45.957,222.168 46.248,222.044C46.539,221.92 47.73,221.624 48.894,221.386C50.058,221.148 51.725,220.714 52.598,220.421C55.108,219.58 58.851,218.566 60.001,218.416C60.58,218.34 61.294,218.126 61.588,217.939C62.336,217.463 67.607,215.7 68.282,215.7C68.588,215.7 69.527,215.343 70.368,214.906C71.21,214.47 72.028,214.113 72.186,214.113C72.345,214.113 72.964,213.876 73.562,213.587C74.159,213.299 75.205,212.873 75.886,212.642C76.567,212.411 78.131,211.754 79.362,211.183C80.594,210.611 81.809,210.144 82.062,210.144C82.315,210.144 82.636,210.033 82.774,209.897C82.912,209.762 84.275,209.007 85.803,208.219C87.331,207.432 89.296,206.368 90.169,205.856C91.042,205.343 92.334,204.606 93.04,204.217C93.747,203.828 95.467,202.651 96.864,201.601C98.26,200.551 99.604,199.574 99.85,199.428C100.382,199.114 104.022,195.883 104.434,195.359C104.592,195.159 105.359,194.385 106.139,193.639C109.116,190.796 112.923,184.392 113.586,181.114C113.727,180.418 113.96,179.373 114.104,178.791C114.5,177.188 114.429,173.146 113.974,171.372C111.885,163.235 108.637,157.842 101.546,150.739C97.21,146.396 95.6,144.922 93.608,143.472C92.735,142.836 91.759,142.04 91.438,141.702C91.118,141.364 90.759,141.088 90.642,141.088C90.524,141.088 90.131,140.812 89.769,140.476C89.406,140.14 88.431,139.431 87.603,138.901C86.774,138.371 85.226,137.303 84.164,136.529C83.101,135.755 81.785,134.889 81.239,134.605C80.693,134.321 80.247,133.996 80.247,133.884C80.247,133.771 80.12,133.679 79.965,133.679C79.81,133.679 79.304,133.397 78.84,133.051C78.057,132.467 76.474,131.531 74.544,130.512C74.1,130.277 73.386,129.838 72.957,129.536C72.528,129.233 71.88,128.896 71.516,128.786C71.152,128.676 70.199,128.206 69.399,127.742C68.599,127.278 66.694,126.27 65.166,125.504C63.638,124.737 62.2,123.941 61.97,123.735C61.74,123.529 61.396,123.36 61.206,123.36C61.016,123.36 58.457,122.17 55.521,120.715C52.585,119.259 50.057,118.069 49.902,118.069C49.748,118.069 48.922,117.761 48.067,117.385C47.212,117.009 46.126,116.532 45.653,116.326C45.18,116.121 44.388,115.773 43.893,115.555C43.398,115.337 42.862,115.158 42.702,115.158C42.542,115.158 42.412,115.068 42.412,114.958C42.412,114.848 41.906,114.601 41.287,114.408C40.669,114.216 39.805,113.896 39.369,113.698C38.932,113.499 37.861,113.107 36.988,112.825C36.115,112.543 34.864,112.07 34.21,111.772C33.555,111.474 32.543,111.035 31.961,110.795C30.031,110.002 29.585,109.805 28.877,109.438C28.491,109.237 27.924,109.073 27.617,109.073C27.31,109.073 26.852,108.971 26.599,108.847C26.346,108.723 25.663,108.412 25.081,108.156C24.499,107.901 23.841,107.601 23.617,107.49C23.394,107.379 22.799,107.2 22.295,107.092C21.79,106.984 21.258,106.809 21.113,106.705C20.967,106.6 20.134,106.307 19.261,106.053C18.387,105.8 17.435,105.497 17.144,105.38C16.853,105.263 16.079,104.96 15.424,104.707C14.769,104.454 13.995,104.151 13.704,104.033C13.413,103.915 12.52,103.626 11.72,103.389C10.92,103.153 10.082,102.862 9.859,102.742C9.636,102.623 9.072,102.442 8.605,102.339C8.139,102.237 7.689,102.043 7.606,101.909C7.523,101.774 7.202,101.665 6.893,101.665C6.583,101.665 4.953,101.203 3.27,100.638C1.587,100.073 -0.504,99.403 -1.377,99.149C-2.25,98.894 -3.078,98.582 -3.216,98.456C-3.354,98.329 -3.772,98.225 -4.146,98.225C-4.519,98.225 -5.477,97.979 -6.275,97.679C-7.856,97.085 -9.245,96.643 -11.696,95.953C-15.271,94.946 -15.95,94.736 -16.388,94.502C-16.641,94.367 -17.058,94.257 -17.314,94.258C-17.812,94.259 -20.122,93.553 -20.886,93.166C-21.139,93.038 -21.572,92.933 -21.848,92.933C-22.318,92.933 -24.527,92.333 -25.719,91.881C-26.365,91.636 -28.26,91.127 -29.687,90.815C-30.269,90.688 -31.401,90.387 -32.201,90.146C-33.001,89.905 -34.073,89.608 -34.582,89.486C-35.091,89.364 -36.044,89.135 -36.699,88.977C-37.354,88.82 -38.128,88.589 -38.419,88.466C-38.71,88.342 -39.484,88.099 -40.138,87.924C-41.288,87.618 -41.963,87.463 -44.74,86.864C-45.453,86.711 -46.167,86.48 -46.328,86.351C-46.489,86.222 -47.037,86.049 -47.547,85.967C-48.526,85.808 -51.112,85.184 -51.78,84.945C-52.537,84.674 -54.564,84.162 -55.749,83.942C-56.404,83.821 -57.654,83.524 -58.527,83.284C-60.055,82.862 -60.678,82.715 -63.543,82.098C-64.265,81.943 -64.973,81.698 -65.117,81.554C-65.262,81.41 -65.792,81.292 -66.296,81.292C-67.109,81.292 -68.301,81.017 -70.981,80.213C-71.428,80.079 -72.12,79.969 -72.52,79.969C-72.919,79.969 -73.484,79.841 -73.775,79.685C-74.265,79.423 -75.094,79.235 -78.238,78.669C-79.434,78.454 -81.39,77.996 -82.869,77.586C-83.305,77.464 -84.287,77.285 -85.051,77.187C-85.815,77.089 -86.507,76.901 -86.588,76.769C-86.67,76.637 -87.198,76.529 -87.762,76.529C-88.326,76.529 -89.113,76.405 -89.512,76.254C-89.91,76.102 -90.781,75.916 -91.447,75.839C-92.113,75.762 -92.771,75.588 -92.91,75.453C-93.048,75.317 -93.706,75.206 -94.372,75.206C-95.038,75.206 -95.818,75.043 -96.105,74.844C-96.392,74.645 -97.341,74.414 -98.214,74.331C-99.088,74.249 -100.695,73.991 -101.786,73.759C-102.878,73.526 -104.468,73.232 -105.319,73.106C-106.171,72.98 -106.999,72.746 -107.158,72.586C-107.318,72.426 -108.124,72.296 -108.951,72.296C-109.963,72.296 -110.56,72.166 -110.782,71.899C-111.069,71.554 -110.902,71.502 -109.495,71.502C-108.607,71.502 -107.372,71.615 -106.751,71.753C-105.467,72.038 -102.267,72.511 -99.537,72.819C-94.488,73.388 -92.712,73.636 -92.434,73.813C-92.266,73.919 -91.296,74.094 -90.277,74.202C-89.258,74.31 -87.413,74.589 -86.176,74.821C-84.939,75.053 -83.094,75.34 -82.075,75.459C-81.056,75.578 -79.747,75.805 -79.164,75.964C-78.582,76.122 -77.718,76.255 -77.243,76.258C-76.768,76.262 -76.172,76.371 -75.92,76.501C-75.667,76.631 -74.567,76.884 -73.476,77.064C-72.384,77.243 -70.896,77.497 -70.169,77.629C-69.441,77.761 -68.089,77.981 -67.164,78.118C-66.238,78.255 -65.107,78.482 -64.65,78.623C-64.193,78.763 -62.628,79.076 -61.173,79.319C-59.718,79.561 -58.32,79.866 -58.068,79.996C-57.815,80.127 -57.257,80.233 -56.828,80.233C-56.399,80.233 -55.713,80.361 -55.305,80.516C-54.896,80.671 -53.846,80.899 -52.972,81.021C-52.098,81.144 -50.669,81.436 -49.796,81.671C-48.923,81.906 -47.613,82.208 -46.885,82.342C-43.903,82.89 -42.625,83.174 -42.123,83.402C-41.832,83.535 -41.117,83.699 -40.535,83.768C-39.174,83.929 -36.801,84.541 -36.544,84.798C-36.435,84.907 -35.86,85 -35.266,85.005C-34.671,85.01 -33.888,85.185 -33.524,85.393C-33.16,85.601 -32.481,85.775 -32.015,85.78C-31.549,85.785 -30.894,85.895 -30.56,86.023C-30.225,86.151 -28.999,86.46 -27.835,86.709C-26.671,86.958 -24.826,87.397 -23.734,87.685C-22.643,87.973 -21.214,88.312 -20.559,88.437C-18.631,88.807 -16.649,89.347 -16.436,89.56C-16.327,89.669 -15.941,89.758 -15.577,89.758C-15.214,89.758 -14.252,89.948 -13.439,90.18C-12.626,90.412 -11.544,90.697 -11.034,90.814C-10.525,90.932 -9.572,91.166 -8.918,91.334C-8.263,91.502 -7.31,91.742 -6.801,91.866C-5.053,92.291 -0.847,93.43 0.607,93.871C1.408,94.114 2.479,94.373 2.989,94.448C3.498,94.523 4.046,94.689 4.208,94.818C4.369,94.946 5.023,95.163 5.663,95.299C7.749,95.742 9.196,96.114 9.736,96.345C10.027,96.47 11.336,96.892 12.646,97.283C16.645,98.477 17.651,98.79 18.202,99.015C18.493,99.133 19.446,99.44 20.319,99.696C21.192,99.953 22.085,100.246 22.303,100.349C23.104,100.725 24.573,101.2 25.346,101.331C25.783,101.406 26.259,101.557 26.404,101.667C26.55,101.778 27.082,101.956 27.586,102.065C28.091,102.173 28.686,102.355 28.909,102.47C29.132,102.585 30.029,102.877 30.902,103.118C31.775,103.36 32.728,103.649 33.019,103.762C33.31,103.874 34.56,104.288 35.797,104.68C37.034,105.073 38.463,105.558 38.972,105.758C40.051,106.183 43.135,107.258 44.661,107.741C45.243,107.925 46.076,108.229 46.513,108.417C46.949,108.605 47.902,108.961 48.629,109.208C50.31,109.78 50.779,109.958 52.012,110.491C52.562,110.73 53.195,110.925 53.417,110.925C53.64,110.925 54.439,111.209 55.194,111.555C55.949,111.902 56.805,112.25 57.096,112.328C57.86,112.534 60.665,113.552 61.594,113.96C62.93,114.547 63.637,114.828 65.563,115.539C66.581,115.915 67.752,116.4 68.164,116.617C68.576,116.833 69.134,117.01 69.405,117.01C69.676,117.01 69.962,117.116 70.042,117.246C70.122,117.375 70.496,117.558 70.873,117.653C71.519,117.815 72.972,118.448 76.675,120.182C77.548,120.591 78.917,121.22 79.718,121.58C85.196,124.047 96.107,129.481 98.106,130.739C98.834,131.196 99.757,131.714 100.157,131.889C100.557,132.064 100.885,132.288 100.885,132.386C100.885,132.483 101.161,132.633 101.499,132.718C101.837,132.802 103.355,133.685 104.872,134.679C107.723,136.546 111.419,138.904 112.221,139.368C113.963,140.375 118.84,143.882 119.405,144.535C119.478,144.619 119.984,144.959 120.53,145.29C121.076,145.622 121.671,146.092 121.853,146.335C122.035,146.578 122.898,147.296 123.771,147.932C125.58,149.249 133.983,157.665 134.895,159.074C135.227,159.586 135.781,160.303 136.126,160.667C137.669,162.295 138.884,164.31 141.153,169.001C141.857,170.456 142.559,171.868 142.713,172.139C142.868,172.41 143.097,173.184 143.222,173.859C143.348,174.534 143.691,176.039 143.986,177.203C144.594,179.601 144.729,184.367 144.265,187.01C143.32,192.384 141.15,197.03 136.537,203.554C135.315,205.282 130.418,210.238 128.496,211.693C127.603,212.369 125.619,213.904 124.087,215.105C122.555,216.305 121.231,217.288 121.145,217.288C121.019,217.288 116.718,219.843 114.907,220.993C114.689,221.132 113.082,221.959 111.336,222.831C109.589,223.703 107.506,224.795 106.705,225.258C105.905,225.721 104.664,226.327 103.947,226.605C103.23,226.883 101.861,227.472 100.904,227.915C99.947,228.358 98.808,228.87 98.371,229.053C97.934,229.237 96.734,229.76 95.704,230.216C94.674,230.673 93.579,231.046 93.272,231.046C92.965,231.046 92.649,231.151 92.57,231.279C92.49,231.407 92.156,231.576 91.826,231.654C91.497,231.732 90.215,232.171 88.978,232.629C87.741,233.088 86.491,233.524 86.2,233.599C85.909,233.674 85.433,233.831 85.142,233.947C82.874,234.85 79.268,236.086 78.13,236.35C77.621,236.468 75.656,237.1 73.765,237.755C69.493,239.233 61.468,241.559 59.874,241.781C59.219,241.871 58.083,242.161 57.35,242.424C56.617,242.688 55.426,242.984 54.704,243.082C53.982,243.181 52.439,243.535 51.275,243.868C48.573,244.642 47.167,244.986 45.19,245.353C44.317,245.516 43.186,245.749 42.676,245.871C39.062,246.736 32.074,248.192 29.315,248.654C25.407,249.31 24.23,249.526 23.198,249.78C22.633,249.919 21.278,250.176 20.187,250.352C19.095,250.528 17.617,250.784 16.902,250.92C16.188,251.056 14.476,251.284 13.098,251.427C11.721,251.57 9.903,251.866 9.058,252.084C8.213,252.303 6.234,252.594 4.66,252.73C3.086,252.867 0.905,253.162 -0.186,253.386C-1.278,253.611 -3.361,253.862 -4.817,253.944C-6.272,254.027 -8.117,254.258 -8.918,254.459C-9.718,254.659 -11.742,254.956 -13.415,255.118C-15.089,255.281 -18.006,255.588 -19.898,255.801C-26.614,256.558 -31.06,256.99 -34.847,257.252C-36.957,257.399 -40.231,257.702 -42.123,257.927C-44.015,258.151 -48.003,258.446 -50.986,258.582C-53.969,258.718 -58.375,258.95 -60.776,259.097C-66.285,259.436 -79.859,259.859 -94.378,260.146C-100.563,260.268 -109.611,260.452 -114.486,260.556C-119.361,260.659 -123.439,260.65 -123.548,260.535L-123.548,260.535ZM-74.005,232.397C-74.005,232.087 -73.894,231.626 -73.759,231.373C-73.623,231.12 -73.131,229.961 -72.666,228.797C-72.2,227.633 -71.551,226.085 -71.223,225.357C-70.895,224.63 -70.245,223.141 -69.779,222.05C-68.695,219.516 -68.272,218.585 -66.623,215.103C-65.881,213.537 -65.274,212.156 -65.274,212.033C-65.274,211.911 -64.976,211.25 -64.612,210.566C-64.249,209.882 -63.951,209.218 -63.951,209.09C-63.951,208.854 -63.184,207.133 -61.177,202.868C-60.561,201.558 -59.854,200.01 -59.607,199.428C-59.359,198.846 -58.985,198.033 -58.775,197.621C-58.566,197.209 -58.395,196.701 -58.395,196.493C-58.395,196.284 -58.287,195.907 -58.156,195.654C-57.24,193.894 -54.349,187.682 -53.642,185.953C-53.17,184.799 -52.687,183.668 -52.57,183.439C-52.452,183.211 -52.059,182.369 -51.695,181.569C-49.755,177.305 -49.957,177.6 -48.987,177.6C-48.496,177.6 -47.703,177.436 -47.225,177.235C-45.939,176.695 -44.645,176.32 -43.374,176.12C-42.752,176.023 -42.179,175.84 -42.101,175.713C-42.023,175.587 -41.661,175.483 -41.296,175.483C-40.931,175.483 -40.404,175.361 -40.125,175.211C-39.845,175.062 -39.05,174.818 -38.356,174.669C-36.741,174.323 -35.57,174.021 -33.921,173.525C-30.698,172.557 -29.604,172.268 -28.364,172.059C-27.637,171.936 -26.387,171.637 -25.586,171.395C-24.786,171.152 -23.655,170.858 -23.073,170.741C-22.491,170.625 -21.181,170.268 -20.162,169.948C-16.413,168.771 -15.899,168.639 -14.432,168.475L-12.935,168.308L-13.155,169.282C-13.275,169.818 -13.503,170.385 -13.659,170.542C-13.816,170.698 -13.945,171.053 -13.945,171.329C-13.945,171.605 -14.421,172.82 -15.003,174.028C-15.585,175.236 -16.061,176.415 -16.061,176.648C-16.061,176.881 -16.18,177.071 -16.326,177.071C-16.471,177.071 -16.59,177.234 -16.59,177.434C-16.59,177.822 -17.481,179.978 -19.276,183.936C-19.569,184.583 -20.084,185.833 -20.42,186.714C-20.757,187.595 -21.559,189.447 -22.203,190.829C-22.847,192.212 -23.533,193.759 -23.728,194.269C-23.922,194.778 -24.344,195.79 -24.664,196.518C-24.985,197.245 -25.817,199.21 -26.513,200.883C-27.209,202.557 -27.881,204.039 -28.006,204.177C-28.13,204.316 -28.232,204.58 -28.232,204.765C-28.232,204.951 -28.518,205.731 -28.867,206.498C-29.216,207.266 -29.874,208.847 -30.329,210.011C-30.784,211.176 -31.384,212.604 -31.662,213.186C-31.94,213.769 -32.843,215.912 -33.669,217.949C-34.495,219.986 -35.634,222.647 -36.199,223.861C-36.765,225.076 -37.228,226.189 -37.228,226.335C-37.228,226.985 -39.463,231.091 -39.963,231.358C-40.487,231.638 -42.338,231.743 -57.998,232.374C-74.19,233.027 -74.005,233.027 -74.005,232.397L-74.005,232.397ZM-32.917,230.053C-33.233,229.841 -32.891,228.406 -32.223,227.14C-32.09,226.887 -31.501,225.49 -30.914,224.034C-30.328,222.579 -29.247,220.079 -28.513,218.478C-27.779,216.877 -27.177,215.425 -27.176,215.251C-27.175,215.077 -26.764,214.065 -26.262,213.002C-25.761,211.939 -24.796,209.701 -24.119,208.027C-23.442,206.354 -22.669,204.568 -22.401,204.058C-21.562,202.463 -20.295,199.538 -20.295,199.198C-20.295,199.019 -20.196,198.759 -20.075,198.621C-19.955,198.483 -19.354,197.103 -18.74,195.555C-18.126,194.007 -17.034,191.632 -16.313,190.276C-15.593,188.921 -15.003,187.68 -15.003,187.518C-15.003,187.15 -14.008,184.648 -12.899,182.23C-12.432,181.212 -11.891,180.021 -11.697,179.584C-11.504,179.148 -10.978,177.984 -10.528,176.998C-10.079,176.012 -9.711,175.129 -9.711,175.035C-9.711,174.872 -8.305,171.581 -7.86,170.702C-7.744,170.474 -7.262,169.343 -6.789,168.189C-5.716,165.572 -5.539,165.369 -3.972,164.947C-3.272,164.759 -2.121,164.433 -1.413,164.223C-0.705,164.013 0.16,163.842 0.509,163.842C0.858,163.842 1.351,163.737 1.603,163.608C2.035,163.389 3.229,163.047 5.37,162.53C8.239,161.837 10.954,161.145 12.117,160.809C13.828,160.315 14.754,160.122 16.218,159.953C16.873,159.878 17.532,159.716 17.683,159.594C17.953,159.376 19.262,159.007 21.393,158.551C21.983,158.424 22.757,158.201 23.112,158.056C23.912,157.728 28.955,156.526 30.321,156.337C31.387,156.189 31.88,156.642 31.365,157.297C31.223,157.477 31.026,157.965 30.926,158.381C30.827,158.797 30.527,159.63 30.261,160.233C29.995,160.835 29.565,161.923 29.305,162.651C29.046,163.379 28.764,164.034 28.678,164.106C28.444,164.304 27.595,165.967 27.595,166.226C27.595,166.349 27.238,167.222 26.801,168.165C26.365,169.109 26.007,169.968 26.007,170.074C26.007,170.181 25.615,171.114 25.135,172.148C24.655,173.182 24.129,174.385 23.966,174.822C23.803,175.258 23.111,176.925 22.429,178.526C21.747,180.127 21.03,181.865 20.835,182.389C20.64,182.913 19.939,184.448 19.275,185.8C18.612,187.153 18.07,188.411 18.07,188.597C18.07,188.782 17.901,189.271 17.693,189.683C17.486,190.095 16.992,191.266 16.594,192.284C16.197,193.303 15.582,194.791 15.229,195.592C14.391,197.494 14.282,197.748 13.302,200.09C12.846,201.181 12.243,202.579 11.963,203.197C11.683,203.815 11.025,205.363 10.501,206.637C9.977,207.911 9.337,209.37 9.078,209.879C8.819,210.388 8.4,211.341 8.147,211.996C7.403,213.924 6.347,216.385 4.459,220.595C4.132,221.322 3.668,222.424 3.427,223.042C2.458,225.528 2.09,226.317 1.818,226.491C1.662,226.591 0.283,226.756 -1.245,226.857C-2.773,226.958 -4.916,227.17 -6.007,227.328C-10.444,227.972 -12.073,228.157 -14.409,228.282C-15.756,228.355 -17.163,228.53 -17.535,228.672C-17.908,228.813 -19.165,228.929 -20.329,228.929C-21.494,228.929 -22.653,229.04 -22.907,229.176C-23.303,229.388 -25.952,229.698 -31.275,230.154C-32.002,230.217 -32.742,230.171 -32.917,230.053ZM13.77,224.015C13.318,223.557 13.756,222.279 16.213,216.891C16.678,215.872 17.342,214.288 17.69,213.37C18.037,212.453 18.483,211.381 18.681,210.989C19.127,210.104 20.433,207.284 20.728,206.572C20.848,206.281 21.292,205.269 21.714,204.323C22.136,203.377 22.7,202.008 22.967,201.28C23.234,200.553 23.548,199.83 23.664,199.675C23.865,199.407 24.897,197.052 27.863,190.102C28.593,188.392 29.302,186.755 29.439,186.464C29.576,186.172 30.003,185.16 30.389,184.215C31.075,182.529 31.881,180.77 32.327,179.981C32.821,179.107 33.945,176.512 33.945,176.246C33.945,175.67 35.853,171.964 36.464,171.353C36.812,171.005 37.403,170.721 37.778,170.721C38.153,170.721 39.2,170.466 40.105,170.155C41.01,169.844 42.167,169.493 42.676,169.375C43.186,169.257 44.257,168.964 45.057,168.725C45.858,168.485 46.929,168.187 47.439,168.063C47.948,167.939 49.02,167.644 49.82,167.407C50.62,167.169 51.99,166.802 52.863,166.591C55.608,165.926 56.26,165.757 57.89,165.291C58.763,165.041 59.775,164.78 60.139,164.712C60.502,164.643 61.175,164.419 61.634,164.214C62.092,164.009 62.679,163.842 62.938,163.842C63.472,163.842 64.884,163.423 66.167,162.884C66.645,162.683 67.324,162.519 67.676,162.519C68.028,162.519 68.589,162.408 68.924,162.272C69.258,162.136 70.222,161.821 71.065,161.57C73.082,160.972 73.29,161.193 72.604,163.209C71.932,165.184 67.901,174.628 67.396,175.408C67.188,175.73 67.018,176.21 67.018,176.473C67.018,176.737 66.859,177.188 66.666,177.475C66.472,177.762 66.118,178.498 65.879,179.11C65.639,179.722 65.208,180.734 64.92,181.359C64.632,181.984 64.143,183.15 63.833,183.95C63.523,184.75 62.88,186.239 62.403,187.257C61.927,188.276 61.268,189.764 60.94,190.565C60.407,191.865 59.947,192.947 59.029,195.062C58.871,195.426 58.589,196.081 58.403,196.518C58.217,196.954 57.696,198.125 57.245,199.118C56.795,200.112 55.349,203.494 54.033,206.634C52.717,209.774 51.409,212.796 51.127,213.35C50.845,213.903 50.61,214.569 50.605,214.83C50.585,215.904 49.618,216.537 46.976,217.204C45.557,217.563 43.801,217.956 43.073,218.079C42.345,218.201 40.917,218.497 39.898,218.736C38.879,218.976 37.451,219.278 36.723,219.408C33.727,219.943 32.567,220.181 31.756,220.427C29.322,221.165 27.884,221.521 27.338,221.521C27.004,221.521 26.3,221.631 25.774,221.765C24.141,222.183 21.964,222.641 20.583,222.858C19.856,222.973 18.487,223.258 17.541,223.492C15.113,224.093 14,224.247 13.77,224.015ZM39.071,164.511C38.833,163.892 39.364,162.371 41.105,158.682C42.747,155.202 43.34,153.879 43.553,153.226C43.697,152.78 45.495,151.828 46.645,151.588C47.009,151.512 47.961,151.252 48.762,151.01C49.562,150.768 50.634,150.467 51.143,150.34C51.652,150.214 52.724,149.914 53.524,149.675C54.324,149.435 55.396,149.152 55.905,149.046C56.415,148.94 57.091,148.713 57.409,148.542C57.727,148.371 58.388,148.231 58.878,148.231C59.368,148.231 59.881,148.132 60.02,148.011C60.318,147.75 62.228,147.17 63.711,146.89C64.293,146.78 65.424,146.493 66.224,146.252C68.925,145.438 69.527,145.277 71.032,144.968C71.857,144.798 72.621,144.57 72.729,144.461C72.838,144.352 73.294,144.259 73.743,144.254C74.191,144.249 74.79,144.071 75.072,143.857C75.355,143.644 76.019,143.469 76.549,143.469C77.079,143.469 77.598,143.384 77.702,143.28C78.105,142.877 80.223,142.492 80.502,142.771C80.934,143.204 80.939,143.186 79.595,146.247C79.403,146.683 79.046,147.517 78.803,148.099C78.559,148.681 78.258,149.395 78.135,149.686C78.011,149.978 77.462,151.328 76.914,152.688C75.837,155.36 75.806,155.388 73.236,156.05C72.508,156.238 71.198,156.591 70.325,156.836C68.742,157.279 64.542,158.38 62.785,158.811C61.527,159.12 57.686,160.108 55.905,160.581C55.105,160.793 54.177,161.078 53.842,161.214C53.508,161.349 52.929,161.46 52.555,161.46C52.181,161.46 51.324,161.633 50.649,161.844C49.975,162.055 48.887,162.367 48.232,162.537C47.578,162.706 46.515,163.01 45.87,163.211C45.226,163.412 44.386,163.577 44.005,163.577C43.623,163.577 43.194,163.694 43.051,163.838C42.907,163.981 42.199,164.211 41.476,164.349C40.754,164.486 39.955,164.679 39.702,164.777C39.398,164.894 39.183,164.804 39.071,164.511ZM-113.693,71.238C-113.693,71.092 -113.395,70.973 -113.031,70.973C-112.667,70.973 -112.37,71.092 -112.37,71.238C-112.37,71.383 -112.667,71.502 -113.031,71.502C-113.395,71.502 -113.693,71.383 -113.693,71.238Z" style="fill:url(#_Linear2);fill-rule:nonzero;"/>
            </g>
            <g id="path1704" transform="matrix(4.91626,0,0,4.91626,1086.56,631.214)">
                <path d="M76.732,153.273C73.68,152.647 71.567,150.722 70.345,147.456C69.437,145.031 69.387,141.717 70.219,139.126C71.931,133.793 78.427,131.29 83.328,134.074C84.167,134.55 84.911,134.94 84.983,134.94C85.054,134.94 85.157,133.014 85.211,130.659L85.31,126.378L91.484,123.705L91.484,152.932L85.839,152.932L85.839,150.33L84.869,151.26C83.013,153.037 79.643,153.871 76.732,153.273L76.732,153.273ZM83.058,147.437C85.644,146.116 85.796,140.735 83.293,139.095C79.958,136.91 75.962,139.106 75.962,143.124C75.962,147.342 79.287,149.363 83.058,147.437ZM125.402,153.262C120.502,152.286 117.639,148.022 118.017,142.259C118.355,137.103 121.303,133.715 126.064,133.009C128.2,132.693 130.862,133.337 132.64,134.601C133.448,135.176 134.202,135.646 134.316,135.646C134.43,135.646 134.523,135.115 134.523,134.467C134.523,133.318 134.573,133.278 136.551,132.855C137.667,132.616 138.858,132.342 139.197,132.246C139.775,132.082 139.814,132.736 139.814,142.501L139.814,152.932L134.523,152.932L134.523,150.767L133.485,151.506C131.19,153.141 128.131,153.805 125.402,153.262ZM131.388,147.43C133.974,146.129 134.127,140.735 131.624,139.095C128.289,136.91 124.292,139.106 124.292,143.124C124.292,147.329 127.599,149.336 131.388,147.43ZM46.681,152.045C45.614,151.54 44.148,150.551 43.424,149.847C41.506,147.983 41.447,148.647 43.344,150.756L44.964,152.559L43.815,152.158C42.095,151.559 39.741,149.025 39.266,147.263C38.317,143.74 40.647,138.173 44.769,134.112C48.572,130.365 51.46,130.09 55.416,133.097C57.042,134.333 59.66,137.901 60.853,140.507C62.81,144.782 62.522,147.824 59.923,150.323C59.094,151.12 57.932,151.941 57.339,152.148L56.261,152.523L57.641,151.101C59.255,149.438 59.142,148.512 57.519,150.098C54.688,152.867 50.142,153.683 46.681,152.045L46.681,152.045ZM95.364,137.813L95.364,122.695L98.275,121.467L101.185,120.239L101.375,135.255L103.189,134.128C104.785,133.136 105.305,133 107.504,133C110.834,133 112.767,134.078 114.256,136.766L115.296,138.644L115.411,145.788L115.525,152.932L109.476,152.932L109.474,147.552C109.473,144.593 109.308,141.584 109.109,140.865C108.433,138.433 105.868,137.409 103.508,138.629C101.703,139.562 101.362,140.935 101.362,147.253L101.362,152.932L95.364,152.932L95.364,137.813ZM143.695,142.374L143.695,131.815L145.724,131.408C146.839,131.184 148.109,130.917 148.546,130.816C149.312,130.637 149.339,130.717 149.339,133.152L149.339,135.673L150.093,134.972C151.563,133.602 153.293,133.016 155.866,133.017C158.627,133.018 159.831,133.505 161.629,135.344C163.43,137.186 163.803,139.095 163.803,146.47L163.803,152.932L157.806,152.932L157.798,147.728C157.793,144.867 157.643,141.89 157.464,141.114C156.857,138.487 154.299,137.357 151.839,138.629C150.034,139.562 149.693,140.935 149.693,147.253L149.693,152.932L143.695,152.932L143.695,142.374ZM167.331,141.643C167.331,135.434 167.38,130.354 167.44,130.354C167.5,130.354 168.849,129.88 170.439,129.299L173.328,128.245L173.328,152.932L167.331,152.932L167.331,141.643ZM46.761,130.619C46.974,129.941 49.191,128.944 50.485,128.944C52.367,128.943 54.976,130.291 54.334,130.933C54.235,131.031 53.346,130.825 52.358,130.474C50.644,129.865 50.483,129.864 48.839,130.448C46.784,131.177 46.58,131.194 46.761,130.619L46.761,130.619ZM45.101,126.799C44.209,125.587 43.604,124.484 43.757,124.348C43.91,124.212 44.557,123.926 45.196,123.713C46.261,123.357 46.388,123.395 46.746,124.183C47.256,125.302 47.815,124.954 47.373,123.792C46.872,122.475 46.917,122.376 48.324,121.709C49.711,121.05 52.342,121.141 53.753,121.896C54.387,122.236 54.464,122.508 54.281,123.766C54.068,125.235 54.069,125.236 54.609,124.288C55.101,123.424 55.248,123.37 56.208,123.705C56.79,123.908 57.341,124.195 57.433,124.344C57.626,124.656 55.816,127.491 54.891,128.325C54.342,128.82 54.048,128.832 52.476,128.422C50.775,127.98 48.869,128.102 47.32,128.752C46.865,128.943 46.339,128.48 45.101,126.799L45.101,126.799ZM168.851,126.488C167.609,125.959 166.922,124.593 167.045,122.898C167.357,118.589 174.194,118.973 174.194,123.299C174.194,124.344 173.959,124.945 173.286,125.618C172.287,126.617 170.141,127.038 168.851,126.488ZM67.848,122.587C64.112,122.199 59.058,121.332 56.735,120.681C54.386,120.023 55.345,120.017 59.028,120.667C60.678,120.958 65.202,121.288 69.083,121.4C77.253,121.636 81.368,121.169 86.648,119.406C90.572,118.096 97.271,114.863 101.362,112.306L104.36,110.432L103.037,110.1C102.31,109.918 101.714,109.675 101.714,109.56C101.714,109.317 107.347,107.271 107.474,107.468C107.52,107.541 107.474,108.949 107.371,110.599C107.189,113.501 107.165,113.567 106.65,112.639L106.117,111.681L103.828,113.288C99.022,116.661 89.247,120.765 83.006,122.029C79.664,122.706 71.785,122.996 67.848,122.587L67.848,122.587ZM54.023,119.883C54.278,119.781 54.582,119.793 54.699,119.91C54.817,120.028 54.608,120.111 54.236,120.096C53.826,120.079 53.742,119.995 54.023,119.883L54.023,119.883Z" style="fill:url(#_Linear3);fill-rule:nonzero;"/>
            </g>
            <g transform="matrix(1,0,0,1,1358.15,360.959)">
                <text x="603.267px" y="1039.92px" style="font-family:'StelluxRegularPersonal', 'Stellux';font-size:201.443px;fill:url(#_Linear4);">FINANCE</text>
            </g>
            <g transform="matrix(0.138467,0,0,1.06324,1053.11,-91.0963)">
                <path d="M1391.82,1146.71C1391.82,1142.48 1365.42,1139.04 1332.9,1139.04C1300.39,1139.04 1273.99,1142.48 1273.99,1146.71L1273.99,1411.6C1273.99,1415.83 1300.39,1419.27 1332.9,1419.27C1365.42,1419.27 1391.82,1415.83 1391.82,1411.6L1391.82,1146.71Z" style="fill:url(#_Linear5);"/>
            </g>
        </g>
        <g transform="matrix(5.32363,0,0,0.0416671,-1023.63,1375.62)">
            <rect x="198.742" y="1950.48" width="449.804" height="286.601" style="fill:rgb(151,0,0);"/>
        </g>
    </g>
    <defs>
        <linearGradient id="_Linear1" x1="0" y1="0" x2="1" y2="0" gradientUnits="userSpaceOnUse" gradientTransform="matrix(2393.89,0,0,297.955,33.2607,1268.96)"><stop offset="0" style="stop-color:rgb(255,0,0);stop-opacity:1"/><stop offset="1" style="stop-color:rgb(151,0,0);stop-opacity:1"/></linearGradient>
        <linearGradient id="_Linear2" x1="0" y1="0" x2="1" y2="0" gradientUnits="userSpaceOnUse" gradientTransform="matrix(2393.89,0,0,297.955,33.2607,1268.96)"><stop offset="0" style="stop-color:rgb(255,0,0);stop-opacity:1"/><stop offset="1" style="stop-color:rgb(151,0,0);stop-opacity:1"/></linearGradient>
        <linearGradient id="_Linear3" x1="0" y1="0" x2="1" y2="0" gradientUnits="userSpaceOnUse" gradientTransform="matrix(2393.89,0,0,297.955,33.2607,1268.96)"><stop offset="0" style="stop-color:rgb(255,0,0);stop-opacity:1"/><stop offset="1" style="stop-color:rgb(151,0,0);stop-opacity:1"/></linearGradient>
        <linearGradient id="_Linear4" x1="0" y1="0" x2="1" y2="0" gradientUnits="userSpaceOnUse" gradientTransform="matrix(2393.89,0,0,297.955,33.2607,1268.96)"><stop offset="0" style="stop-color:rgb(255,0,0);stop-opacity:1"/><stop offset="1" style="stop-color:rgb(151,0,0);stop-opacity:1"/></linearGradient>
        <linearGradient id="_Linear5" x1="0" y1="0" x2="1" y2="0" gradientUnits="userSpaceOnUse" gradientTransform="matrix(2393.89,0,0,297.955,33.2607,1268.96)"><stop offset="0" style="stop-color:rgb(255,0,0);stop-opacity:1"/><stop offset="1" style="stop-color:rgb(151,0,0);stop-opacity:1"/></linearGradient>
    </defs>
</svg>
